
nColumns=19
nRows=67
DataType=double
version=3
OpenSimVersion=4.4-2022-10-11-798caa840
endheader
time	ground_force_calcn_r_vx	ground_force_calcn_r_vy	ground_force_calcn_r_vz	ground_force_calcn_r_px	ground_force_calcn_r_py	ground_force_calcn_r_pz	ground_force_calcn_r_mx	ground_force_calcn_r_my	ground_force_calcn_r_mz	ground_force_calcn_l_vx	ground_force_calcn_l_vy	ground_force_calcn_l_vz	ground_force_calcn_l_px	ground_force_calcn_l_py	ground_force_calcn_l_pz	ground_force_calcn_l_mx	ground_force_calcn_l_my	ground_force_calcn_l_mz
2	9.806839999999999	289.565	-29.8517	-0.263762	0	-0.342638	-0.008175099999999999	-0.241385	0.0248848	19.9765	258.851	25.4731	-0.250867	0	-0.842834	-0.0162137	-0.210093	-0.0206749
2.01	11.1007	294.438	-30.2031	-0.264202	0	-0.342451	-0.014869	-0.394388	0.0404558	20.3325	263.403	25.8787	-0.251308	0	-0.843063	-0.0111814	-0.144853	-0.0142314
2.02	12.2136	300.216	-30.7252	-0.264476	0	-0.34222	-0.022425	-0.551219	0.0564137	20.3609	268.324	26.3093	-0.251436	0	-0.843299	-0.0053842	-0.0709553	-0.0069572
2.03	13.1186	306.741	-31.4179	-0.264599	0	-0.341949	-0.030357	-0.7098100000000001	0.07270210000000001	20.0838	273.527	26.767	-0.251326	0	-0.843533	0.000752508	0.0102486	0.00100292
2.04	13.808	313.752	-32.2624	-0.264586	0	-0.341651	-0.0382079	-0.868181	0.08927309999999999	19.5399	278.914	27.2601	-0.251047	0	-0.843764	0.00682231	0.0973818	0.00951777
2.05	14.2918	320.946	-33.2235	-0.264456	0	-0.341334	-0.0456143	-1.02434	0.106037	18.7847	284.397	27.805	-0.250663	0	-0.84399	0.0124794	0.188936	0.0184719
2.06	14.5944	328.042	-34.2552	-0.264231	0	-0.341012	-0.0523334	-1.17631	0.122834	17.8859	289.895	28.4216	-0.250231	0	-0.844213	0.017478	0.283284	0.0277734
2.07	14.7436	334.847	-35.3085	-0.263931	0	-0.340699	-0.0582131	-1.3221	0.139411	16.9132	295.331	29.1261	-0.249799	0	-0.844434	0.0216829	0.378617	0.0373398
2.08	14.7651	341.276	-36.3367	-0.26357	0	-0.34041	-0.06315469999999999	-1.45974	0.155423	15.9293	300.637	29.9248	-0.249409	0	-0.844652	0.025056	0.472886	0.0470701
2.09	14.6809	347.345	-37.2999	-0.263162	0	-0.34016	-0.0670938	-1.58741	0.170466	14.9889	305.765	30.8134	-0.249095	0	-0.844861	0.0276469	0.563979	0.056835
2.1	14.5113	353.136	-38.1664	-0.262715	0	-0.339961	-0.0700093	-1.70369	0.184133	14.1418	310.692	31.7759	-0.248881	0	-0.845054	0.0295806	0.649881	0.06646630000000001
2.11	14.277	358.774	-38.9164	-0.262234	0	-0.339823	-0.0719349	-1.80769	0.196081	13.4293	315.429	32.7885	-0.248787	0	-0.845222	0.0310158	0.728501	0.0757269
2.12	13.9964	364.397	-39.5425	-0.261722	0	-0.33975	-0.0729398	-1.89898	0.206068	12.8754	320.032	33.8287	-0.248817	0	-0.845356	0.0320793	0.797368	0.084285
2.13	13.6879	370.126	-40.0469	-0.261177	0	-0.339743	-0.0731353	-1.97761	0.213973	12.4858	324.598	34.8803	-0.248966	0	-0.845449	0.0328349	0.853624	0.0917278
2.14	13.3728	376.033	-40.4366	-0.260593	0	-0.339796	-0.07269	-2.04399	0.2198	12.2508	329.239	35.933	-0.249217	0	-0.845495	0.0332802	0.894401	0.09761450000000001
2.15	13.0761	382.144	-40.7215	-0.259967	0	-0.339903	-0.07182040000000001	-2.09891	0.223662	12.1469	334.071	36.9798	-0.249542	0	-0.845494	0.0333592	0.917463	0.101558
2.16	12.8203	388.478	-40.9162	-0.259288	0	-0.340053	-0.07074279999999999	-2.14364	0.225778	12.1379	339.234	38.019	-0.249912	0	-0.845448	0.0329823	0.9217959999999999	0.103309
2.17	12.6178	395.086	-41.0394	-0.25855	0	-0.340238	-0.06962359999999999	-2.18003	0.22645	12.1772	344.9	39.056	-0.250292	0	-0.8453580000000001	0.0320562	0.907941	0.102814
2.18	12.4669	402.058	-41.1122	-0.25774	0	-0.340448	-0.06854250000000001	-2.2105	0.226033	12.2182	351.274	40.0992	-0.25065	0	-0.845231	0.0305527	0.878393	0.100272
2.19	12.3454	409.53	-41.1579	-0.25685	0	-0.340671	-0.06746199999999999	-2.2379	0.224909	12.2222	358.563	41.1551	-0.250961	0	-0.84507	0.0285548	0.837714	0.0961511
2.2	12.2167	417.66	-41.1977	-0.255874	0	-0.340897	-0.06626700000000001	-2.26551	0.223468	12.1645	366.938	42.2238	-0.251205	0	-0.8448830000000001	0.026263	0.792214	0.09116059999999999
2.21	12.0475	426.591	-41.2456	-0.25481	0	-0.341119	-0.0648695	-2.29697	0.222087	12.0349	376.503	43.2968	-0.251372	0	-0.844677	0.0239558	0.7494420000000001	0.0861837
2.22	11.8173	436.423	-41.3071	-0.253669	0	-0.34133	-0.0632585	-2.33618	0.221118	11.835	387.274	44.3572	-0.251459	0	-0.844463	0.0219246	0.717436	0.08217289999999999
2.23	11.5207	447.192	-41.3801	-0.252466	0	-0.341523	-0.0614985	-2.38714	0.22089	11.5806	399.169	45.3788	-0.251467	0	-0.8442460000000001	0.0204259	0.70406	0.08003979999999999
2.24	11.1633	458.849	-41.4584	-0.251213	0	-0.34169	-0.0596991	-2.45382	0.221711	11.2986	412.025	46.3297	-0.251403	0	-0.844037	0.0196454	0.716409	0.0805559
2.25	10.7514	471.264	-41.5371	-0.249927	0	-0.341821	-0.0579474	-2.54	0.223875	11.0216	425.62	47.1767	-0.251279	0	-0.843841	0.0196932	0.760489	0.08429440000000001
2.26	10.2834	484.256	-41.6169	-0.248614	0	-0.341906	-0.056252	-2.64897	0.227652	10.7799	439.707	47.8921	-0.251105	0	-0.8436669999999999	0.0206188	0.841033	0.0916038
2.27	9.74666	497.609	-41.7086	-0.247276	0	-0.34193	-0.0545153	-2.78324	0.233286	10.5913	454.041	48.4595	-0.250894	0	-0.84352	0.0224273	0.961438	0.102614
2.28	9.11656	511.089	-41.8372	-0.245913	0	-0.341881	-0.0525185	-2.94427	0.241015	10.4573	468.388	48.8772	-0.250651	0	-0.843409	0.0250893	1.12376	0.117267
2.29	8.35618	524.451	-42.0416	-0.244517	0	-0.34174	-0.0499036	-3.13205	0.251075	10.36	482.523	49.1606	-0.25038	0	-0.8433389999999999	0.028525	1.32857	0.135358
2.3	7.41951	537.457	-42.371	-0.24308	0	-0.341498	-0.0461764	-3.34493	0.263702	10.2619	496.235	49.3446	-0.250077	0	-0.843322	0.0325641	1.57471	0.156586
2.31	6.26095	549.888	-42.8759	-0.241597	0	-0.341141	-0.0407564	-3.57956	0.279106	10.1115	509.323	49.4807	-0.249733	0	-0.843365	0.0369101	1.85919	0.18062
2.32	4.84443	561.569	-43.6006	-0.240064	0	-0.340664	-0.0330489	-3.83105	0.297446	9.853630000000001	521.616	49.6294	-0.249342	0	-0.843478	0.0411307	2.17731	0.207162
2.33	3.14889	572.397	-44.5778	-0.238491	0	-0.340068	-0.0225179	-4.09324	0.318779	9.441599999999999	532.982	49.8512	-0.2489	0	-0.843664	0.0446925	2.52291	0.235974
2.34	1.17213	582.343	-45.8234	-0.236893	0	-0.339359	-0.008773970000000001	-4.35913	0.343012	8.84817	543.341	50.1981	-0.24841	0	-0.843925	0.0470412	2.88867	0.266878
2.35	-1.06682	591.434	-47.3323	-0.235297	0	-0.33855	0.00833588	-4.62135	0.369845	8.07037	552.667	50.7076	-0.247882	0	-0.844253	0.047701	3.26661	0.299714
2.36	-3.5294	599.725	-49.0784	-0.233735	0	-0.337663	0.0286743	-4.87241	0.398732	7.12591	560.981	51.3995	-0.247335	0	-0.844641	0.046343	3.64831	0.334274
2.37	-6.16259	607.284	-51.0199	-0.232242	0	-0.336722	0.0518039	-5.10494	0.428883	6.04529	568.342	52.2763	-0.246792	0	-0.845073	0.0428114	4.02487	0.370209
2.38	-8.903219999999999	614.171	-53.1054	-0.230859	0	-0.335754	0.0770029	-5.31189	0.459302	4.86551	574.823	53.3253	-0.24628	0	-0.84553	0.0371328	4.38696	0.40697
2.39	-11.6799	620.4349999999999	-55.279	-0.229619	0	-0.334787	0.103285	-5.48648	0.48883	3.62681	580.497	54.5197	-0.245829	0	-0.845994	0.0295212	4.72509	0.443775
2.4	-14.4141	626.097	-57.4851	-0.228555	0	-0.333851	0.129436	-5.62223	0.516205	2.37351	585.417	55.821	-0.245467	0	-0.8464429999999999	0.0203932	5.0299	0.479614
2.41	-17.0211	631.157	-59.6703	-0.227697	0	-0.332974	0.154073	-5.71317	0.54013	1.15382	589.605	57.1838	-0.24522	0	-0.8468599999999999	0.0103573	5.29261	0.513313
2.42	-19.4127	635.591	-61.7835	-0.227066	0	-0.332178	0.175745	-5.75409	0.559333	0.0140172	593.05	58.5612	-0.245108	0	-0.847227	0.00013012	5.5052	0.543616
2.43	-21.5031	639.338	-63.7765	-0.226678	0	-0.331483	0.193082	-5.74078	0.572665	-1.00796	595.701	59.9099	-0.245139	0	-0.847535	-0.009578400000000001	5.66079	0.569308
2.44	-23.2157	642.296	-65.6073	-0.226541	0	-0.330905	0.204956	-5.67039	0.579202	-1.8846	597.473	61.1943	-0.245316	0	-0.847776	-0.0181502	5.75415	0.589351
2.45	-24.486	644.343	-67.2424	-0.226657	0	-0.33045	0.210597	-5.54182	0.578334	-2.59623	598.256	62.3875	-0.245636	0	-0.847951	-0.0250922	5.78207	0.6029679999999999
2.46	-25.2608	645.366	-68.6576	-0.227024	0	-0.330125	0.209651	-5.3562	0.5698220000000001	-3.12581	597.931	63.471	-0.246091	0	-0.848061	-0.0300262	5.74367	0.609697
2.47	-25.5009	645.276	-69.8373	-0.227641	0	-0.329927	0.202229	-5.11723	0.55383	-3.45477	596.397	64.4329	-0.246677	0	-0.848113	-0.0326752	5.64072	0.609406
2.48	-25.1844	644.004	-70.7715	-0.228502	0	-0.329855	0.188921	-4.83101	0.530894	-3.56388	593.585	65.2659	-0.247387	0	-0.848112	-0.0328871	5.47753	0.6022650000000001
2.49	-24.3095	641.4930000000001	-71.4551	-0.229597	0	-0.329901	0.170735	-4.50544	0.5018550000000001	-3.43686	589.473	65.96469999999999	-0.248217	0	-0.848064	-0.0306721	5.26072	0.588699
2.5	-22.893	637.6900000000001	-71.8865	-0.230913	0	-0.330053	0.14898	-4.14987	0.467813	-3.06321	584.078	66.5247	-0.249161	0	-0.847978	-0.0262161	4.99876	0.569344
2.51	-20.9663	632.535	-72.06440000000001	-0.232435	0	-0.330298	0.125113	-3.77455	0.430033	-2.44051	577.462	66.94029999999999	-0.250214	0	-0.8478599999999999	-0.0198694	4.7014	0.544994
2.52	-18.5705	625.97	-71.9843	-0.234142	0	-0.330621	0.100574	-3.39014	0.389854	-1.57616	569.725	67.2058	-0.251368	0	-0.847716	-0.0121147	4.37904	0.516559
2.53	-15.7539	617.9589999999999	-71.6392	-0.236016	0	-0.331009	0.0766641	-3.0072	0.348621	-0.488265	560.995	67.3164	-0.252607	0	-0.847556	-0.00351808	4.04212	0.485033
2.54	-12.5724	608.499	-71.024	-0.23804	0	-0.33145	0.0544571	-2.63569	0.307638	0.794644	551.4059999999999	67.268	-0.253915	0	-0.847386	0.00533333	3.70081	0.451476
2.55	-9.090299999999999	597.634	-70.1403	-0.24019	0	-0.331927	0.0347469	-2.28441	0.268106	2.23282	541.088	67.05759999999999	-0.255271	0	-0.847213	0.0138848	3.36477	0.416999
2.56	-5.38108	585.452	-69.0005	-0.242449	0	-0.332428	0.0180207	-1.96062	0.231076	3.77609	530.168	66.68510000000001	-0.256652	0	-0.847045	0.0216735	3.04298	0.382749
2.57	-1.52601	572.075	-67.62860000000001	-0.244793	0	-0.33294	0.00445456	-1.66994	0.197414	5.36877	518.779	66.1564	-0.258035	0	-0.8468869999999999	0.0283927	2.74356	0.349868
2.58	2.39103	557.659	-66.0587	-0.247202	0	-0.333448	-0.00607212	-1.4162	0.167758	6.95747	507.061	65.4858	-0.259399	0	-0.846747	0.0339384	2.47343	0.319438
2.59	6.28938	542.39	-64.3334	-0.24966	0	-0.333943	-0.0139309	-1.20139	0.142498	8.497719999999999	495.16	64.69540000000001	-0.260727	0	-0.846629	0.0384068	2.23795	0.292401
2.6	10.0965	526.49	-62.5024	-0.252157	0	-0.334415	-0.0196699	-1.0257	0.121767	9.95576	483.207	63.8124	-0.262008	0	-0.846537	0.0420414	2.0405	0.269468
2.61	13.7522	510.205	-60.6188	-0.254691	0	-0.334858	-0.0239256	-0.887638	0.105463	11.3063	471.309	62.8643	-0.263236	0	-0.8464739999999999	0.0451595	1.88249	0.251091
2.62	17.2103	493.803	-58.7349	-0.257267	0	-0.335271	-0.0273287	-0.78412	0.0932665	12.5318	459.535	61.8753	-0.26441	0	-0.846441	0.0480948	1.76362	0.237467
2.63	20.4362	477.555	-56.9008	-0.259889	0	-0.33565	-0.0304173	-0.710794	0.0846913	13.6226	447.932	60.8647	-0.265539	0	-0.846435	0.0511592	1.68219	0.228575
2.64	23.3987	461.722	-55.1634	-0.262557	0	-0.335998	-0.0335732	-0.662493	0.0791502	14.5762	436.535	59.8469	-0.26663	0	-0.846453	0.054608	1.63543	0.224209
2.65	26.0637	446.528	-53.5641	-0.265259	0	-0.336311	-0.0369831	-0.6336000000000001	0.0760048	15.3923	425.376	58.8337	-0.267694	0	-0.8464930000000001	0.0586041	1.61956	0.224001
2.66	28.3929	432.149	-52.1344	-0.267969	0	-0.33659	-0.0406354	-0.618486	0.074614	16.066	414.485	57.8343	-0.268731	0	-0.84655	0.0631755	1.62986	0.227419
